<?xml version="1.0" encoding="UTF-8"?>
<!DOCTYPE svg PUBLIC "-//W3C//DTD SVG 1.1//EN" "http://www.w3.org/Graphics/SVG/1.1/DTD/svg11.dtd">
<!-- Creator: CorelDRAW 2019 (64-Bit) -->
<svg xmlns="http://www.w3.org/2000/svg" xml:space="preserve" width="0.549331in" height="0.67715in" version="1.1" style="shape-rendering:geometricPrecision; text-rendering:geometricPrecision; image-rendering:optimizeQuality; fill-rule:evenodd; clip-rule:evenodd"
viewBox="0 0 44.46 54.81"
 xmlns:xlink="http://www.w3.org/1999/xlink">
 <defs>
  <style type="text/css">
   <![CDATA[
    .str0 {stroke:#E6E7E8;stroke-width:3.19;stroke-miterlimit:2.61313}
    .fil0 {fill:none}
   ]]>
  </style>
 </defs>
 <g id="Layer_x0020_1">
  <metadata id="CorelCorpID_0Corel-Layer"/>
  <path class="fil0 str0" d="M8.01 22.2c-3.14,0.26 -3.53,0.2 -5.18,2.05 -1.43,1.59 -1.12,3.45 -1.16,6.07 -0.08,5.46 -0.15,12.42 0.09,17.89 0.07,1.45 0.21,1.9 0.94,2.77 1.49,1.79 2.05,1.99 5.22,2.07 8.77,0.22 19.9,0.22 28.67,0 3.17,-0.08 3.74,-0.28 5.22,-2.07 1.24,-1.49 1,-3.73 1.03,-6.2 0.06,-4.8 -0,-9.61 -0.04,-14.33 -0.02,-2.6 0.31,-4.59 -1.13,-6.2 -1.63,-1.83 -2.06,-1.79 -5.18,-2.05 -0.18,-2.72 -0.1,-5.74 -0.15,-8.54 -0.06,-3.21 -0.05,-4.75 -1.54,-7.16 -3.08,-4.98 -7.45,-4.9 -12.55,-4.91 -5.13,-0 -9.35,-0.15 -12.56,4.9 -1.51,2.37 -1.48,4.07 -1.53,7.16 -0.05,2.75 0.04,5.82 -0.15,8.54zm10 11.8c-0.32,-2.18 1,-3.54 2.05,-4.27 2.68,-1.85 7.61,0.77 6.22,4.99 -0.3,0.92 -0.71,1.36 -1.28,1.91 -0.9,0.88 -0.62,1.04 -0.62,2.64 0,1.38 0.15,5.16 -0.17,6.25 -0.28,0.96 -1.31,0.79 -2.46,0.77 -1.41,-0.03 -1.46,-0.31 -1.59,-1.67 -0.17,-1.83 -0.07,-4.4 -0.05,-6.33 0.02,-2.34 -1.7,-1.51 -2.1,-4.28zm11.51 -11.78l-14.57 0c-0.14,-3.07 -0.13,-7.31 0.12,-10.27 0.34,-4.06 3.25,-3.47 7.05,-3.44 3.7,0.03 6.91,-0.64 7.26,3.22 0.12,1.28 0.24,9.33 0.13,10.49z"/>
 </g>
</svg>
