<?xml version="1.0" encoding="UTF-8"?>
<!DOCTYPE svg PUBLIC "-//W3C//DTD SVG 1.1//EN" "http://www.w3.org/Graphics/SVG/1.1/DTD/svg11.dtd">
<!-- Creator: CorelDRAW 2019 (64-Bit) -->
<svg xmlns="http://www.w3.org/2000/svg" xml:space="preserve" width="6.04862in" height="2.47572in" version="1.1" style="shape-rendering:geometricPrecision; text-rendering:geometricPrecision; image-rendering:optimizeQuality; fill-rule:evenodd; clip-rule:evenodd"
viewBox="0 0 1573.19 643.91"
 xmlns:xlink="http://www.w3.org/1999/xlink">
 <defs>
  <style type="text/css">
   <![CDATA[
    .str1 {stroke:#E6E7E8;stroke-width:15.36;stroke-miterlimit:2.61313;stroke-opacity:0.658824}
    .str0 {stroke:#E6E7E8;stroke-width:1.81;stroke-miterlimit:2.61313;stroke-opacity:0.658824}
    .fil1 {fill:none}
    .fil0 {fill:#FEFEFE;fill-opacity:0.658824}
   ]]>
  </style>
 </defs>
 <g id="Layer_x0020_1">
  <metadata id="CorelCorpID_0Corel-Layer"/>
  <polygon class="fil0 str0" points="0.9,316.54 472.32,316.54 472.32,324.18 0.9,324.18 "/>
  <polygon class="fil0 str0" points="1100.87,316.54 1572.28,316.54 1572.28,324.18 1100.87,324.18 "/>
  <path class="fil1 str1" d="M686.5 434.76c50.19,0.29 150.87,0.29 201.03,0.58 50.17,0.3 49.82,0.9 48.91,-6.38 -0.91,-7.28 -2.38,-22.43 -8.19,-32.93 -5.81,-10.5 -15.96,-16.37 -31.75,-25.48 -15.79,-9.11 -37.21,-21.48 -48.23,-27.35 -11.02,-5.87 -11.64,-5.24 -16.66,-2.36 -5.01,2.89 -14.41,8.05 -25.62,10.82 -11.21,2.77 -24.23,3.15 -36.49,-0.2 -12.26,-3.35 -23.75,-10.44 -29.59,-13.98 -5.84,-3.54 -6.03,-3.54 -18.97,3.87 -12.94,7.42 -38.63,22.25 -54.43,31.92 -15.8,9.67 -21.71,14.18 -25,23.33 -3.29,9.15 -3.96,22.94 -4.44,30.12 -0.48,7.18 -0.77,7.76 49.42,8.04zm100.05 -230.67c36.49,0 66.07,29.58 66.07,66.07 0,36.49 -29.58,66.07 -66.07,66.07 -36.49,0 -66.07,-29.58 -66.07,-66.07 0,-36.49 29.58,-66.07 66.07,-66.07z"/>
  <path class="fil1 str1" d="M786.59 7.68c173.57,0 314.28,140.71 314.28,314.28 0,173.57 -140.71,314.28 -314.28,314.28 -173.57,0 -314.28,-140.71 -314.28,-314.28 0,-173.57 140.71,-314.28 314.28,-314.28z"/>
 </g>
</svg>
