<?xml version="1.0" encoding="UTF-8"?>
<!DOCTYPE svg PUBLIC "-//W3C//DTD SVG 1.1//EN" "http://www.w3.org/Graphics/SVG/1.1/DTD/svg11.dtd">
<!-- Creator: CorelDRAW 2019 (64-Bit) -->
<svg xmlns="http://www.w3.org/2000/svg" xml:space="preserve" width="11.9868in" height="1.87367in" version="1.1" style="shape-rendering:geometricPrecision; text-rendering:geometricPrecision; image-rendering:optimizeQuality; fill-rule:evenodd; clip-rule:evenodd"
viewBox="0 0 4126.51 645.02"
 xmlns:xlink="http://www.w3.org/1999/xlink">
 <defs>
  <style type="text/css">
   <![CDATA[
    .str0 {stroke:#373435;stroke-width:2.39;stroke-miterlimit:2.61313}
    .fil0 {fill:#FEFEFE}
    .fil1 {fill:url(#id0)}
   ]]>
  </style>
  <linearGradient id="id0" gradientUnits="userSpaceOnUse" x1="1.2" y1="339.01" x2="544.15" y2="339.01">
   <stop offset="0" style="stop-opacity:1; stop-color:#33BFE7"/>
   <stop offset="1" style="stop-opacity:1; stop-color:#039DA8"/>
  </linearGradient>
 </defs>
 <g id="Layer_x0020_1">
  <metadata id="CorelCorpID_0Corel-Layer"/>
  <g id="_2254674281296">
   <path class="fil0" d="M1363.11 371.99c-38.06,0 -75.28,-6.16 -104.65,-13.78 -141.06,-36.61 -70.52,-160.97 -70.52,-234.29 -8.51,2.14 -5.44,1.02 -9.5,7.75 -14.92,24.78 -28.09,50.79 -36.53,77.79 -35.09,112.27 23.98,213.59 -52.15,268.25 -17.65,12.68 -24.68,13.55 -54.14,13.55 2.99,-12.11 35.45,-47.75 40.63,-138.35 1.57,-27.55 -0.19,-58.5 3.99,-84.5 2.26,-14 4.82,-72.75 1.07,-80.08 -9.54,6.6 -23.28,57.98 -27.39,72.04 -18.57,63.48 -11.76,114.75 -15.81,178.35 -1.74,27.39 -16.43,42.11 -30.41,66.83 11.13,12.04 28.4,30.06 46.69,32.63 24.12,3.39 42.64,-12.55 54.26,-23.63 13.31,-12.68 23.15,-29.94 31.13,-47.08 6.33,-13.6 17.25,-38.93 17.68,-57.33 15.67,3.92 17.37,31.25 112.41,42.28 44.27,5.14 103.34,5.46 144.46,1.08 81.13,-8.63 173.74,-31.23 248.69,-59.72 20.32,-7.73 36.74,-13.16 55.45,-21.85 44.06,-20.45 55.29,-23.41 104.25,-49.93l95.52 -55.76c53.56,-30.03 80.69,-28.18 99.83,-51.7 7.96,-9.78 29.24,-29.26 30.46,-42.93 -31,0.65 -94.44,33.51 -120.96,46.15 -70.24,33.49 -113.38,53.69 -188.81,84.98 -48.35,20.06 -118.82,41.36 -172.9,49.84 -61.53,9.66 -132.46,19.39 -202.76,19.39z"/>
   <path class="fil0" d="M3009.33 215.96c0,-46.83 22.85,-109.04 22.85,-147.88 -12.3,8.5 -25.74,43.91 -33.05,59.56 -22.76,48.68 -17.19,58.9 -24.62,110.44 -3.61,25.02 0.86,78.55 -11.57,98.85 -11.73,19.15 -24.78,5.46 -44.98,5.46 -25.71,0 -40.95,62.02 -99.02,62.02 1.7,-19.26 17.57,-22.27 16.29,-45.11 -1.84,-32.73 -68.29,-29.06 -95.62,-7.98 -14.17,10.93 -14.13,8.66 -22.58,24.45 -1.35,2.52 -1.44,2.55 -1.96,4.01 -0.01,0.01 -3.66,3 1.01,3.33l11.42 -0.23c13.26,-0.42 25.68,3.81 29.14,18.04 6.31,25.92 -45.54,25.35 -62.5,15.79 -28.16,-15.88 -24.26,-33.91 -28.64,-61.42 -4.36,-27.34 12.65,-125.93 18.13,-161.53 2.96,-19.22 5.84,-32.86 5.84,-54.13 -2.73,2.96 -1.27,0.93 -4.22,5.55l-7.02 14.87c-3.25,7.77 -5.91,13.65 -8.98,20.18 -23.49,49.9 -23.71,92.18 -30.74,150.01 -4.57,37.57 -17.6,94.89 1.03,130.62 6.39,12.26 16.11,38.93 49.95,38.93 71.69,0 81.62,-57.25 104.09,-57.25 18.9,0 21.23,3.85 39.48,-1.05 20.37,-5.47 53.9,-49.04 74.76,-49.04 21.17,0 29.39,12.53 51.39,-11.34l16.06 -18.3c5.91,-7.16 9.08,-13.23 18.87,-15.68 3.39,11.93 22.6,19.08 35.53,19.08 53.27,0 50.57,-36.23 83.99,-66.57l3.99 -3.4c29.11,-24.3 36.5,0.31 55.11,-12.56 6.08,-4.21 13.84,-12.88 17.71,-19.2 7.59,-12.38 19.43,-35.49 19.43,-53.29 -9.85,2.48 -12.1,9.81 -17.21,17.2 -19.81,28.68 -24.02,11.42 -46.25,11.42 -26.48,0 -48.57,69.83 -103.7,44.96 -31.28,-14.11 -33.4,-38.84 -33.4,-68.82z"/>
   <path class="fil0" d="M916.26 261.96c9.35,-37.82 77.85,-69.73 104.61,-85.4 5.74,-3.36 18.34,-10.69 22.73,-14.42 2.7,-2.29 15.39,-16.79 17.3,-19.52 33.58,-47.82 -24.62,-66.72 -50.71,-66.72 -9.03,0 -21.46,26.05 -25.38,33.39 -28.91,54.2 -16.05,37.03 -5.08,52.47 -7.85,13.95 -20.53,22.89 -32.37,34 -13.35,12.53 -18.92,19.18 -30.38,33.48 -5.35,6.67 -9.51,11.14 -13.48,18.34 -86.03,155.98 89.88,79.72 19.33,170.82l-24.7 26.88c-45.43,36 -127.4,49.48 -165.31,17.64 -54.67,-45.91 -27.14,-113.94 -4.44,-167.59 15.58,-36.84 30.47,-56.98 30.47,-93.01l-15.95 25.55c-35.99,79.48 -91.92,178.58 -62.47,267.59 4.96,14.99 7.64,19.68 16.02,32.65 20.92,32.41 48.28,36.76 82.72,36.76 71.51,0 136.66,-63.77 161.4,-120.26 13.42,-30.63 39.86,-95.33 32.08,-135.44 -2.46,-12.7 -4.53,-14.03 -13.84,-20.41 -15.13,-10.37 -30.36,-13.62 -42.56,-26.8z"/>
   <path class="fil0" d="M2269.61 484.35c98,0 189.87,-22.97 262.6,-63.35 38.95,-21.62 69.96,-76.73 69.96,-117.92 -6.79,4.29 -8.12,8.26 -12.65,14.33 -63.55,85.32 -324.28,98.89 -428.2,70.71 -43.5,-11.8 -54.2,-22.41 -54.2,-63.58 -11.96,0.94 -11.4,5 -13.8,15.63 -6.56,29.03 -22.96,83.95 -0.81,110.21 5.08,6.02 4.9,5.99 11.3,10.85 38.26,29.03 116.48,23.11 165.79,23.11z"/>
   <path class="fil0" d="M3294.45 620.57c62.58,0 102.23,-32.53 140.23,-68.59 9.88,-9.37 11.22,-12.08 19.3,-22.42 57.04,-73.03 77,-152.24 81.64,-242.92 1.14,-22.23 9.77,-50.23 5.07,-69.17 -4.83,5.25 -6.62,7.71 -10.18,14.26l-23.16 45.03c-16.53,43 -8.09,92.48 -12.91,123.83 -7.09,46.08 -59.5,101.67 -108.59,122.2 -11.46,4.79 -22.18,7.98 -37.28,10.3 -69.7,10.69 -140.45,-3.87 -140.45,-84.25 0,-26.69 15.68,-58.58 25.34,-78.76 6.95,-14.51 32.25,-57.67 25.43,-71.5 -10.01,3.41 -36.59,55.15 -42.33,65.16 -33.96,59.2 -67.14,163.88 -13.91,226.22 24.18,28.32 57.03,30.62 91.8,30.62z"/>
   <path class="fil0" d="M3952.12 424.15c-11.78,0 -25.55,-9.61 -30.48,-16.69 -12.54,-18.04 -13.6,-60.71 -11.25,-74.94 1.92,-11.62 2.6,-29.01 3.57,-39.64 2.37,-25.98 6.96,-51.74 10.99,-77.93 3.62,-23.55 9.39,-49.41 9.39,-77.03l-11.24 20.42c-3.25,7.77 -5.91,13.65 -8.98,20.18 -5.21,11.06 -13.56,28.64 -16.42,41.82 -3.5,16.2 -4.77,34.06 -6.97,50.7 -7.43,56.3 -35.25,184.49 9.78,218.28 5.43,4.07 12.53,8.75 21.14,8.75 37,0 44.34,-8.66 68.86,-37.86 36.71,-43.7 40.79,-12.66 63.74,-28.37 9.18,-6.28 12.74,-14.65 17.43,-19.4 5.81,-5.89 0.39,-1.56 5.68,-4.21 6.33,-3.17 10.88,-2.65 17.44,-7.47 15.15,-11.12 38.32,-60.41 29.93,-76.81 -9.2,6.37 -8.51,14.45 -14.25,24.76 -6.4,11.48 -9.38,11.02 -26.35,11.02 -11.14,44.9 -37.91,25.5 -55.9,33.35 -10.38,4.53 -16.29,13.49 -25.41,19.06 -22.18,13.56 -24.66,11.99 -50.71,11.99z"/>
   <path class="fil0" d="M3636.15 415.35c-45.72,-3.57 -36.39,-62.2 -33.4,-88.62 1.64,-14.48 1.79,-26.32 3.14,-39.98 4.27,-43.26 20.08,-113.55 20.08,-150.48l-8.37 13.58c-22.14,49.14 -27.75,58.23 -34.99,117.4l-16.85 134.44c-18.08,83.97 58.91,130.71 96.19,61.76 11.65,-21.54 30.78,-85.61 -8.04,-88.65 -6.95,12.34 -10.68,27.95 -17.77,40.55z"/>
   <path class="fil0" d="M1953.73 548.4c23.04,-8.16 49.36,-105.29 52.2,-132.07 2,-18.91 5.25,-145.42 2.63,-170.24 -9.01,7.01 -11.68,19.48 -15.6,31.58 -43.71,134.86 -9.76,62.44 -28.72,195.96 -1.97,13.87 -4.38,25.03 -7.01,38.22 -2.97,14.93 -7.2,25.59 -3.5,36.55z"/>
   <path class="fil0" d="M3676.12 503.87c51.89,0 104.24,-24.2 124.37,-66.79 15.48,-32.76 44.8,-121.13 35.55,-157.41 -19.94,12.61 -23.27,81.71 -60.87,131.23 -34.85,45.89 -96.83,67.96 -99.05,92.97z"/>
   <path class="fil0" d="M3377.46 333.51c7.69,0 22.76,-18.61 27.26,-24.47 38.41,-49.88 -22.23,-81.91 -37.42,-85.24 -9.71,6.7 -38.79,62.09 -40.8,70.42 -2.96,12.29 50.92,39.28 50.96,39.28z"/>
   <path class="fil0" d="M3225.78 112.09c0.45,-0.37 1.12,-0.85 1.4,-1.07l11.71 -10.47c3.5,-4.08 8.19,-9.18 11.22,-13.31 39.37,-53.62 -23.28,-85.07 -31.92,-87.24 -1.9,6.68 -6.82,12.68 -10.66,18.6 -41.75,64.4 -26.97,60.59 -5.16,77.34 8.23,6.32 14.31,11.6 23.41,16.15z"/>
   <path class="fil0" d="M3020.76 528.51c14.43,0 38.07,-43.12 38.07,-59.62 0,-22.28 -28.64,-39.31 -45.68,-50.08 -7.21,12.8 -14.49,22.43 -22.01,36.56 -6.95,13.06 -11.75,25.21 -18.61,37.37 4.75,6.65 35.16,35.77 48.22,35.77z"/>
   <path class="fil0" d="M2244.75 240.78c0,9.24 38.67,33.73 45.68,38.16 8.96,-7.31 16.03,-13.49 23.64,-23.1 17.94,-22.67 21.82,-50.5 -2.68,-70.52 -6.74,-5.51 -20.49,-16.43 -28.56,-18.46 -1.33,5.36 -38.08,64.68 -38.08,73.93z"/>
   <path class="fil0" d="M3773.59 176.12c4.75,6.65 35.16,35.77 48.22,35.77 6.61,0 64.18,-48.68 20.98,-88.88 -4.35,-4.05 -8.42,-8.51 -12.95,-11.68 -4.66,-3.26 -10.7,-6.03 -15.63,-9.15 -6.92,12.29 -14,21.45 -21.17,34.97 -7.18,13.55 -12.34,26.37 -19.45,38.96z"/>
   <path class="fil0" d="M2819.42 604.48c0,4.61 38.62,32.25 45.68,35.77 8.78,-7.16 16.01,-14.33 23.25,-23.47 41.79,-52.74 -21.13,-86.17 -30.85,-88.62l-20.31 35.77c-4.55,8.6 -17.77,29.89 -17.77,40.55z"/>
   <path class="fil0" d="M2737.02 192.2c4.75,6.65 35.16,35.77 48.22,35.77 6.61,0 64.19,-48.68 20.98,-88.88 -19.82,-18.43 -8.57,-8.18 -28.58,-20.83 -6.93,12.29 -14,21.45 -21.17,34.97 -7.18,13.55 -12.34,26.37 -19.45,38.96z"/>
   <path class="fil0" d="M2736.05 606.86c0,9.24 38.67,33.73 45.67,38.15 29.63,-24.18 57.72,-63.6 20.97,-93.63 -4.91,-4.01 -7.55,-5.41 -12.73,-9.51 -5.4,-4.27 -8.55,-7.12 -15.83,-8.96 -2.45,9.88 -14.97,25.35 -20.37,35.72 -2,3.85 -17.71,36.38 -17.71,38.21z"/>
   <path class="fil0" d="M3142.41 116.86c29.63,-24.18 57.72,-63.6 20.97,-93.63 -6.82,-5.57 -19.99,-16.3 -28.56,-18.46l-30.44 57.26c-9.35,17.38 -19.78,18.27 38.04,54.83z"/>
   <path class="fil0" d="M2333.61 238.39c0,3.75 16.93,15.49 20.89,18.52 8.59,6.58 15.26,12.49 24.78,17.25 26.24,-21.41 56.53,-63.63 22.15,-92.35 -4.24,-3.54 -9.56,-7.01 -14.17,-10.54 -5.06,-3.87 -9.21,-7.59 -15.58,-9.2 -2.34,8.23 -38.08,59.17 -38.08,76.32z"/>
   <path class="fil0" d="M1807.04 453.42c1.43,16.09 12.08,19.94 26.08,17.58 39.97,-6.73 32.2,-41.54 39.4,-53.85 8.21,-14.04 25.9,0.42 25.9,-20.98 0,-7.54 -39.67,-13.29 -45.78,33.3 -3.56,27.14 -14.58,23.95 -45.59,23.95z"/>
  </g>
  <circle class="fil1 str0" cx="272.67" cy="339.01" r="271.48"/>
  <path class="fil0" d="M339.39 286.39l11.98 -11.82 11.99 11.82c-0.34,0.59 -10.61,10.98 -11.91,11.82 -1.65,-1.13 -11.21,-10.28 -12.05,-11.82zm-48.76 139.99c0.71,1.07 0.81,1.21 2.15,1.93 1.8,-1.12 2.09,-1.47 2.25,-3.9 -1.23,-0.74 -1.01,-0.98 -2.25,-1.53 -1.12,1.05 -1.65,2.18 -2.15,3.5zm11.01 51.58c-0.19,-2.49 -0.84,-3.06 -2.63,-3.97 -0.87,1.45 -1.76,2.5 -2.45,4.39l2.44 2.37c1.3,-0.81 1.73,-1.64 2.63,-2.79 0.54,1.69 1.35,2.32 2.7,2.93 3.45,-2.68 3.08,-4.12 0.37,-6.82 -0.64,0.52 -0.91,0.8 -1.55,1.78l-1.51 2.11zm38.2 -24.88c1.21,0.47 2.14,0.85 3.61,0.84 2.12,-3.61 0.44,-5.48 -3.01,-6.11l-0.6 5.27zm-50.61 57.45c3.19,-2.11 3.66,-5 -0.01,-6.76 -0.98,1.62 -1.77,2.45 -2.46,4.39 1.28,1.44 1.06,1.58 2.47,2.37zm-11.55 0.27c3.13,-1.41 3.41,-5.3 -0.17,-6.79 -0.67,1.46 -1.86,2.74 -2.4,4.73l2.57 2.06zm-27.56 -25.75c0.86,0.95 1.35,1.67 2.67,2.18 3.17,-2.66 2.83,-3.91 0.59,-6.72 -1.79,0.75 -2.95,2.98 -3.26,4.54zm-5.29 0.1c1.03,0.96 1.21,1.5 2.63,1.98 2.85,-2.3 3.41,-4.58 0.07,-6.8 -1.06,1.39 -2.28,2.68 -2.7,4.83zm29.99 -2.32l2.27 2.31c3.27,-1.6 3.74,-5.48 -0.07,-6.94 -0.65,1.6 -1.78,2.66 -2.2,4.63zm-2.1 27.86c2.55,-2.15 3.42,-4.93 0.01,-6.81 -1.33,1.04 -2.06,2.53 -2.79,4.28 0.73,1.27 1.51,2.1 2.77,2.53zm45.46 -29.44l4.1 0.94c0.43,-1.71 1,-2.54 0.46,-4.31 -0.87,-1.62 -1.9,-1.9 -3.98,-1.95l-0.58 5.32zm19.04 -11.97l-0.89 2.84c-5.14,-0.2 -4.43,-10.97 -7.11,-15.51 -0.57,4.98 1.6,12.4 3.23,16.77 3.85,10.38 10.41,-0.71 4.77,-4.1zm-93.28 -33.61c2.93,-4.54 0.7,-21 -2.71,-23.83 -3.71,3.55 -0.72,7.26 0.56,10.88 1.71,4.85 1.37,7.97 2.15,12.96zm115.21 32.94c0.92,-1.16 1.32,-1.52 1.9,-3.29 1.7,-5.2 0.87,0.7 4.31,-6.36 0.91,-1.86 0.6,-2.75 0.28,-4.74 -0.07,0.11 -0.14,0.17 -0.16,0.36l-1.42 3.05c-1.38,3.3 -0.51,0.65 -2.54,2.82 -0.92,0.99 -3.02,5.58 -6.07,2.37 -1.53,-1.61 -4.26,-12.39 -5.07,-15.3 -0.6,4.89 0.73,8.41 1.93,12.66 1.23,4.35 1.73,8.97 6.84,8.42zm-82.58 -44c-1.38,2.49 -6.33,6.48 -6.75,10.93 9.73,-12.31 16.96,-10.67 17.97,-17.42 -2.14,0.99 -5.07,3.2 -8.26,1.51 -1.65,-0.87 -2.18,-2.49 -0.85,-3.77 1.43,-1.38 2.88,-0.08 4.74,-0.15 1.11,-4.02 -2.46,-5.32 -6.17,-0.41 -4.76,6.29 -2.49,7.2 -0.67,9.31zm-18.89 10.81c2.66,-3.99 0.6,-10.77 0.03,-15.16 1.25,-0.5 0.67,-0.17 1.28,-1.07 2.6,0.31 3.09,2.14 5.59,-0.56 1.41,-1.52 2.07,-3.57 2.05,-6.09 -0.08,0.08 -0.19,0.1 -0.22,0.26l-0.9 1.02c-2.3,1.92 -2.99,0.13 -4.67,-1.21 -3.1,5.7 -6.12,0.84 -7.16,0 -2.82,4.13 -0.43,6.98 1.27,10.73 1.85,4.06 1.71,9.8 2.73,12.07zm-57.88 38.39c-1,2.5 0.02,4.46 2.76,4.77 3.1,0.35 4.77,-1.17 7.12,-1.49 2.56,4.83 4.53,1.08 7.74,3.35 0.84,0.59 -0.24,0.43 1.66,0.94 3.04,0.83 4.59,0.42 7.17,-0.7 -0.09,-0.05 -0.26,-0.19 -0.31,-0.09l-2.74 -0.42c-2.47,-0.36 -1.08,0.54 -3.25,-0.94 -1.92,-1.31 -5.17,-0.88 -5.38,-4 -0.2,-3 6.95,-6.93 9.1,-9.09 -7.77,0.73 -10.88,7.29 -15.35,9.55 -2.57,1.3 -5.91,0.86 -6.6,-1.3 4.74,-2.01 4.46,-1.41 8.4,-4.43 2.22,-1.71 5.65,-3.82 7.15,-5.89 -5.05,1.29 -7.64,3.55 -10.49,6.1 -0.65,0.58 -1.24,0.98 -2,1.57 -2.32,1.8 -2.72,1.09 -5.01,2.08zm115.38 16.41c-2.75,-2.84 -1.24,-7.71 -1.95,-11.8 -2.05,2.99 -0.99,12.15 0.78,15.18 4.43,7.59 16.57,2.24 16.04,-12.52 -0.1,-2.9 -2.14,-11.8 -3.4,-13.67 -1.58,5.83 0.82,7.02 1.75,11.48 1.81,8.67 -8.76,15.94 -13.21,11.34zm-80.16 -1.95c-0.49,0.49 -4,6.94 0.47,9.23 4.02,2.06 26.73,4.43 29.24,-8.03 -2.95,1.63 -1.82,2.4 -6.56,3.59 -4.85,1.22 -13.37,1.2 -18.18,-0.09 -5.96,-1.6 -4.08,-2.79 -4.97,-4.7zm-37.88 -25.98c5.53,-1.05 7.58,2.99 13.13,1.14 0.37,-2 0.31,-2.91 -1.02,-4.5 -5.13,-0.13 -5.29,2.19 -5.78,2.34 -3.99,-0.35 -9.58,-0.46 -11.19,2.44 -1.14,2.16 0.4,2.45 -0.2,4.61 -2.39,1.5 -5.86,1.08 -8.29,-0.46 -0.84,-0.54 -1.86,-1.64 -2.48,-2.39 -0.96,-1.16 -1.46,-2.33 -1.01,-4.34 1.25,-5.63 10.43,-5.34 12.92,-8.07 -2.93,0.17 -10.12,2.92 -12.49,4.36 -14.05,8.54 1.71,20.06 14.46,10.93 3.38,-2.42 0.92,-2.94 1.94,-6.06zm103.76 25.08c-2.09,0.01 -2.06,-0.61 -3.66,0.36 -0.01,0.01 -4.57,4.93 -6.41,0.15 -1.28,-3.33 1.86,-8.68 1.85,-11.99 -2.84,2.97 -3.88,7.64 -4.5,12.55 -0.82,6.42 -0.82,3.33 -4.1,4.29 -1.58,0.47 -2.04,2.93 -5.56,3.03 0.72,-1.55 1.11,-1.63 1.04,-3.77 -3.31,-1.13 -5.25,-0.81 -7.13,1.49 0.08,0.07 0.23,0.12 0.29,0.15l1.39 0.82c1.01,1.16 0.5,0.05 0.59,1.8 -9.9,1.94 -2.28,-12.54 -2.6,-17.63 -0.94,3.19 -1.56,0.34 -3.65,10.52 -0.68,3.34 -2.45,9.06 0.07,11.29 1.54,1.36 4.16,0.98 5.62,-0.26 3.86,-3.27 1.65,-1.18 5.09,-2.08 1.99,-0.52 2.09,-2.18 4.71,-2.42 3.4,-0.31 2.38,-0.41 4.87,-2.34 4.52,3.15 5.03,-0.44 7.53,-2.51 2.37,-1.97 4.63,1.07 6.08,-5.2 -1.12,0.66 -0.88,0.6 -1.5,1.75zm4.69 -229.86l11.62 0.01 0.02 -138.3 -11.63 -0 -0.01 138.29zm-62.58 -134.2l0 131.1 0.02 3.06 11.56 0.05 0.06 -138.77 -9.41 -0.02 -2.23 0.05 0 4.53zm45.5 155.3c-2.98,-0.05 -6.17,0.2 -9.08,0.09 -3.47,-0.13 -6.08,-4.03 -8.21,-5.82 -2.74,-2.3 -5.9,-5.69 -7.82,-6.48 -0.84,1.07 -1.71,1.72 -3.01,3.14 -1.11,1.21 -2.25,2.13 -3.49,3.19l-6.52 6.31 22.86 0.1 61.58 85.22c1.07,1.5 2.83,4.44 4.19,5.61l18.56 0.07c-0.91,-1.94 -2.5,-3.81 -3.76,-5.57l-27.65 -39.01c-5.21,-7.35 -10.57,-14.58 -15.7,-22.07 -2.66,-3.89 -5.31,-7.34 -7.94,-11.16 -2.23,-3.26 -6.39,-8.25 -7.75,-11.17l6.22 -6.67c-2.9,-4.78 -15.06,-13.72 -15.43,-16.86l0 -53.8c0,-14.22 -0,-28.44 -0,-42.66 -0,-13.67 0.74,-29.53 -0.06,-42.94l-11.44 -0.09c-0.69,5.98 -0.14,15.35 -0.14,21.7 0,39.54 0.33,80.19 -0.01,119.54 -0.05,5.86 0.12,4.54 3.57,7.75 1.23,1.14 1.5,1.78 2.59,2.75 1.93,1.73 7.54,6.7 8.44,8.81zm-35.33 14.46l22.78 31.05c1.94,2.57 21.5,28.96 22.69,31.34l-8.53 0.02c-2.6,0 -2.9,-1.04 -3.96,-2.46l-40.03 -53.62c-2.08,1.75 -8.38,8.07 -9.33,10.24 0.99,0.8 1.44,1.57 2.13,2.63 0.78,1.19 1.32,1.78 2.27,3.07l30.3 41.24c2.26,3.09 2.74,2.65 1,6.87 -8,19.42 -37.18,21.47 -37.19,-5.94l-0.01 -37.33c0,-2.54 -0.04,-3.58 -1.12,-5.34 -4.11,-1.06 -6.04,2.19 -8.03,4.03 -2.36,2.17 -4.32,4.05 -6.67,6.23l-32.69 31.74c-1.88,1.76 -5.17,3.79 -4.48,8.12 5.58,4.93 25.26,-1.71 34.29,6.06 1.8,1.55 2.92,3.05 4.21,5.58 8.59,16.82 27.39,26.69 46.69,16.52 5.33,-2.81 7.79,-5.67 11.25,-9.2 2.42,-2.47 6.77,-8.58 8.1,-12.35l40.91 -0.03c-0.49,-1.75 -43.9,-59.79 -48.81,-66.42l-16.46 -22.14c-2.19,2 -7.95,7.71 -9.33,10.08zm-65.42 -6.67c1.02,-1.66 10.37,-10.72 12.08,-11.86 2.02,1.7 4.09,3.88 6.09,5.84l5.79 6.02 -5.74 6.07c-2.01,1.96 -4.27,3.89 -6.01,5.87 -1.95,-1.12 -4.49,-4.01 -6.28,-5.72 -1.88,-1.79 -4.85,-3.99 -5.94,-6.22zm-103.88 54.22c0.07,37.95 11.29,72.82 27.4,99.75 4.5,7.53 13.76,20.79 19.96,27.6l7.82 8.16c5.3,5.43 10.33,10.08 16.84,15.17 32.58,25.51 73.66,39.52 120.01,39.19 66.69,-0.48 127.73,-40.9 158.77,-95.97 35.64,-63.22 32.63,-136.39 -9.37,-195.75 -4.39,-6.21 -9.02,-12.66 -13.67,-17.87 -5.78,-6.48 -13.01,-14.69 -19.46,-20.54 -0.79,-0.71 -1.37,-1.16 -2.11,-1.9l-10.51 -9.49c-2.46,-1.91 -15.37,-12.89 -17.78,-14.05 -0.82,14.83 -0.06,31.97 -0.06,47.06 -0,7.85 -0.01,15.7 0,23.55 0.01,6.27 0.81,5.37 -3.1,8.51 -2.33,1.88 -4.23,3.92 -6.73,5.39 -2.03,-1.33 -3.36,-3.07 -5.13,-4.77 -3.84,-3.71 -2.87,-3.11 -2.84,-11.8l-0.02 -102.82c4.89,0.92 23.4,10.86 28.62,13.75 9.8,5.41 32.41,20.61 40.29,28.6 12.13,12.3 16.89,15.41 28.12,30.53 25.15,33.88 42.48,75.68 42.48,129.93 0,30.53 -7.8,64.29 -19.01,88.52 -12.77,27.59 -26.6,47 -43.84,64.14 -41.18,40.92 -94.58,61.16 -154.88,61.03 -19.64,-0.04 -27.26,-1.32 -45.68,-6.68 -14.17,-4.13 -25.78,-8.68 -38.45,-14.45 -13.33,-6.07 -29.82,-16.09 -40.7,-24.62l-10.96 -9.04c-1.52,-1.21 -2.08,-1.84 -3.51,-3.15 -2.49,-2.27 -4.58,-3.99 -6.96,-6.38 -4.18,-4.19 -8.42,-8.87 -12.46,-13.76 -31.15,-37.64 -49.3,-84.02 -49.18,-135.61 0.13,-61.08 26.54,-115.35 63,-150.24 21.8,-20.86 47.17,-37.05 75.46,-48.53 3.76,-1.52 12.92,-5.38 16.34,-5.88 0.75,9.99 0.07,22.81 0.07,33.11l0 74.66c0.04,4.92 0.63,4.1 -7.04,9.7 -1.57,1.14 -3.25,2.72 -4.81,3.46 -1.63,-1.23 -3.8,-4.34 -5.11,-5.84 -3.32,-3.81 -2.91,-2.17 -2.9,-8.66l-0.05 -73.64c-11.43,4.52 -33.17,19.8 -42.03,27.11 -40.41,33.34 -66.94,84.21 -66.84,142.51zm248.52 -217.69c-0.76,11.82 -0.1,26.07 -0.1,38.16l-0 77.33c0.01,20.54 -2.14,16.1 5.38,23.55 1.62,1.6 3.6,3.11 4.73,4.89 -1.9,2.77 -7.2,7.23 -9.71,9.67 -2.36,2.29 -8.42,7.55 -9.85,9.88 0.99,2.03 5,5.32 6.86,7.08l14.24 13.76c1.36,1.33 2.04,2.17 3.43,3.68 1.21,1.31 2.5,2.17 3.42,3.61 2.09,-0.65 6.04,-5.05 7.8,-6.77l21.33 -21.36c-1.4,-2.07 -10.52,-10.22 -14.24,-14.23 -1.9,-2.05 -3.18,-3.11 -4.73,-4.82 1.29,-1.38 4.21,-3.7 5.92,-5.07 1.97,-1.56 4.43,-4.09 6.36,-5.13l0.07 -57.97c6.09,3.08 29.81,28.97 35.65,36.81 10.2,13.67 18.9,27.32 26.57,45.86 31.39,75.96 -0.33,158.09 -61.58,203.48 -28.41,21.06 -66.11,35.94 -111.61,33.21 -30.15,-1.81 -58.61,-10.17 -83.16,-25.24 -9.65,-5.92 -12.65,-8.62 -21.13,-15.29 -4.6,-3.62 -9.2,-8.72 -13.75,-12.92 -2.71,-2.51 -10.14,-11.81 -12.52,-15.02 -45.16,-61.04 -49.12,-144.65 -7.04,-206.39 5.71,-8.38 13.28,-17.66 20.48,-24.84 1.82,-1.81 3.06,-3.21 4.68,-4.65 6.03,-5.33 24.96,-21.33 31.24,-23.33 -0.01,4.9 -0.56,61.65 0.38,63.68 0.79,1.71 8.37,9.37 9.78,11.84 -2.42,3.02 -7.03,6.85 -10.05,9.83l-7.67 7.43c-0.96,0.9 -1.56,1.86 -2.41,2.76l14.1 14.17c2.38,2.31 12.67,12.83 14.62,13.88l28.36 -28.05 -18.92 -18.76c1.37,-1.51 3.34,-2.81 5.27,-4.3 2.05,-1.57 3.62,-2.74 5.81,-4.41 4.12,-3.13 3.9,-2.35 3.88,-5.84 -0.26,-42.96 0.85,-88.58 -0.05,-130.68 -8.17,1.34 -30.69,10.02 -38.79,13.57 -29.28,12.83 -63.97,35.76 -83.89,60.09 -11.41,13.93 -16.66,19.2 -27.34,38.43 -36.21,65.16 -37.4,143.49 -3.63,210.08 8.02,15.81 20.41,33.96 31.97,46.7 3.71,4.09 9.31,10.02 13.24,13.41 1.38,1.19 1.71,1.54 3.18,3.04 4.81,4.92 20.47,16.56 25.97,20.26 21.76,14.66 46.07,25.56 71.86,33.03 6.78,1.96 13.95,3.73 21.01,5.18 8,1.64 16.29,1.82 24.73,1.91 31.88,0.35 62.75,-4.9 89.72,-15.11 12.73,-4.82 24.75,-10.71 35.38,-17.06 7.03,-4.2 16.83,-10.93 23.08,-16.03l10.52 -9.03c6.57,-5.51 17.52,-17.59 22.53,-23.7 45.82,-55.91 61.83,-132.39 43.82,-204.07 -3.49,-13.91 -8.5,-26.34 -13.98,-38.45 -8.67,-19.19 -18.77,-32.71 -30.94,-48.17 -1.99,-2.53 -4.04,-4.47 -6.05,-6.82l-13.1 -13.13c-2.43,-2.08 -4.46,-4.15 -7.04,-6.28 -21.01,-17.34 -39.3,-28.67 -65.01,-39.86 -5.26,-2.29 -13.67,-5.97 -19.1,-7.46z"/>
 </g>
</svg>
