<?xml version="1.0" encoding="UTF-8"?>
<!DOCTYPE svg PUBLIC "-//W3C//DTD SVG 1.1//EN" "http://www.w3.org/Graphics/SVG/1.1/DTD/svg11.dtd">
<!-- Creator: CorelDRAW 2019 (64-Bit) -->
<svg xmlns="http://www.w3.org/2000/svg" xml:space="preserve" width="0.701512in" height="0.550685in" version="1.1" style="shape-rendering:geometricPrecision; text-rendering:geometricPrecision; image-rendering:optimizeQuality; fill-rule:evenodd; clip-rule:evenodd"
viewBox="0 0 40.81 32.04"
 xmlns:xlink="http://www.w3.org/1999/xlink">
 <defs>
  <style type="text/css">
   <![CDATA[
    .str0 {stroke:#E6E7E8;stroke-width:2.29;stroke-miterlimit:2.61313}
    .fil0 {fill:none}
   ]]>
  </style>
 </defs>
 <g id="Layer_x0020_1">
  <metadata id="CorelCorpID_0Corel-Layer"/>
  <path class="fil0 str0" d="M7.51 30.8c6.45,0.04 19.39,0.04 25.84,0.08 6.45,0.04 6.4,0.12 6.29,-0.82 -0.12,-0.94 -0.31,-2.88 -1.05,-4.23 -0.75,-1.35 -2.05,-2.1 -4.08,-3.28 -2.03,-1.17 -4.78,-2.76 -6.2,-3.52 -1.42,-0.75 -1.5,-0.67 -2.14,-0.3 -0.64,0.37 -1.85,1.03 -3.29,1.39 -1.44,0.36 -3.11,0.41 -4.69,-0.03 -1.58,-0.43 -3.05,-1.34 -3.8,-1.8 -0.75,-0.46 -0.78,-0.46 -2.44,0.5 -1.66,0.95 -4.97,2.86 -7,4.1 -2.03,1.24 -2.79,1.82 -3.21,3 -0.42,1.18 -0.51,2.95 -0.57,3.87 -0.06,0.92 -0.1,1 6.35,1.03zm12.86 -29.65c4.69,0 8.49,3.8 8.49,8.49 0,4.69 -3.8,8.49 -8.49,8.49 -4.69,0 -8.49,-3.8 -8.49,-8.49 0,-4.69 3.8,-8.49 8.49,-8.49z"/>
 </g>
</svg>
